<mxfile host="app.diagrams.net" modified="2020-11-28T01:37:03.247Z" agent="5.0 (Windows NT 10.0; Win64; x64) AppleWebKit/537.36 (KHTML, like Gecko) Chrome/87.0.4280.66 Safari/537.36" etag="gMOThgTGOTQRumQuVCn5" version="13.10.4" type="github">
  <diagram id="fHeVgNO0WyCNrRHH2woC" name="Page-1">
    <mxGraphModel dx="832" dy="445" grid="1" gridSize="10" guides="1" tooltips="1" connect="1" arrows="1" fold="1" page="1" pageScale="1" pageWidth="850" pageHeight="1100" math="0" shadow="0">
      <root>
        <mxCell id="0" />
        <mxCell id="1" parent="0" />
        <mxCell id="hhulfD7d4bxJUT3jshQG-16" value="alexandra.location" style="shape=table;startSize=30;container=1;collapsible=1;childLayout=tableLayout;fixedRows=1;rowLines=0;fontStyle=1;align=center;resizeLast=1;" vertex="1" parent="1">
          <mxGeometry x="170" y="20" width="540" height="230" as="geometry" />
        </mxCell>
        <mxCell id="hhulfD7d4bxJUT3jshQG-17" value="" style="shape=partialRectangle;collapsible=0;dropTarget=0;pointerEvents=0;fillColor=none;top=0;left=0;bottom=0;right=0;points=[[0,0.5],[1,0.5]];portConstraint=eastwest;" vertex="1" parent="hhulfD7d4bxJUT3jshQG-16">
          <mxGeometry y="30" width="540" height="80" as="geometry" />
        </mxCell>
        <mxCell id="hhulfD7d4bxJUT3jshQG-18" value="P" style="shape=partialRectangle;connectable=0;fillColor=none;top=0;left=0;bottom=0;right=0;fontStyle=1;overflow=hidden;" vertex="1" parent="hhulfD7d4bxJUT3jshQG-17">
          <mxGeometry width="60" height="80" as="geometry" />
        </mxCell>
        <mxCell id="hhulfD7d4bxJUT3jshQG-19" value="* LOCATION_ID                                              NUMBER (4)&#xa;* STREET_ADRESS                                       VARCHAR2 (75 BYTE)&#xa;   POSTAL_CODE                                           VARCHAR2 (12 BYTE)&#xa;* CITY                                                              VARCHAR2 (30 BYTE)&#xa;  STATE_PROVINCE                                       VARCHAR2 (30 BYTE)" style="shape=partialRectangle;connectable=0;fillColor=none;top=0;left=0;bottom=0;right=0;align=left;spacingLeft=6;fontStyle=1;overflow=hidden;" vertex="1" parent="hhulfD7d4bxJUT3jshQG-17">
          <mxGeometry x="60" width="480" height="80" as="geometry" />
        </mxCell>
        <mxCell id="hhulfD7d4bxJUT3jshQG-20" value="" style="shape=partialRectangle;collapsible=0;dropTarget=0;pointerEvents=0;fillColor=none;top=0;left=0;bottom=1;right=0;points=[[0,0.5],[1,0.5]];portConstraint=eastwest;" vertex="1" parent="hhulfD7d4bxJUT3jshQG-16">
          <mxGeometry y="110" width="540" height="30" as="geometry" />
        </mxCell>
        <mxCell id="hhulfD7d4bxJUT3jshQG-21" value="F" style="shape=partialRectangle;connectable=0;fillColor=none;top=0;left=0;bottom=0;right=0;fontStyle=1;overflow=hidden;" vertex="1" parent="hhulfD7d4bxJUT3jshQG-20">
          <mxGeometry width="60" height="30" as="geometry" />
        </mxCell>
        <mxCell id="hhulfD7d4bxJUT3jshQG-22" value="* COUNTRY_ID                                               NUMBER (3)" style="shape=partialRectangle;connectable=0;fillColor=none;top=0;left=0;bottom=0;right=0;align=left;spacingLeft=6;fontStyle=1;overflow=hidden;" vertex="1" parent="hhulfD7d4bxJUT3jshQG-20">
          <mxGeometry x="60" width="480" height="30" as="geometry" />
        </mxCell>
        <mxCell id="hhulfD7d4bxJUT3jshQG-23" value="" style="shape=partialRectangle;collapsible=0;dropTarget=0;pointerEvents=0;fillColor=none;top=0;left=0;bottom=0;right=0;points=[[0,0.5],[1,0.5]];portConstraint=eastwest;" vertex="1" parent="hhulfD7d4bxJUT3jshQG-16">
          <mxGeometry y="140" width="540" height="30" as="geometry" />
        </mxCell>
        <mxCell id="hhulfD7d4bxJUT3jshQG-24" value="" style="shape=partialRectangle;connectable=0;fillColor=none;top=0;left=0;bottom=0;right=0;editable=1;overflow=hidden;" vertex="1" parent="hhulfD7d4bxJUT3jshQG-23">
          <mxGeometry width="60" height="30" as="geometry" />
        </mxCell>
        <mxCell id="hhulfD7d4bxJUT3jshQG-25" value="LOCATION_PK (LOCAYION_ID)" style="shape=partialRectangle;connectable=0;fillColor=none;top=0;left=0;bottom=0;right=0;align=left;spacingLeft=6;overflow=hidden;" vertex="1" parent="hhulfD7d4bxJUT3jshQG-23">
          <mxGeometry x="60" width="480" height="30" as="geometry" />
        </mxCell>
        <mxCell id="hhulfD7d4bxJUT3jshQG-26" value="" style="shape=partialRectangle;collapsible=0;dropTarget=0;pointerEvents=0;fillColor=none;top=0;left=0;bottom=0;right=0;points=[[0,0.5],[1,0.5]];portConstraint=eastwest;" vertex="1" parent="hhulfD7d4bxJUT3jshQG-16">
          <mxGeometry y="170" width="540" height="30" as="geometry" />
        </mxCell>
        <mxCell id="hhulfD7d4bxJUT3jshQG-27" value="" style="shape=partialRectangle;connectable=0;fillColor=none;top=0;left=0;bottom=0;right=0;editable=1;overflow=hidden;" vertex="1" parent="hhulfD7d4bxJUT3jshQG-26">
          <mxGeometry width="60" height="30" as="geometry" />
        </mxCell>
        <mxCell id="hhulfD7d4bxJUT3jshQG-28" value="LOCATION_COUNTRY_ID_FK (COUNTRY_ID)" style="shape=partialRectangle;connectable=0;fillColor=none;top=0;left=0;bottom=0;right=0;align=left;spacingLeft=6;overflow=hidden;" vertex="1" parent="hhulfD7d4bxJUT3jshQG-26">
          <mxGeometry x="60" width="480" height="30" as="geometry" />
        </mxCell>
        <mxCell id="hhulfD7d4bxJUT3jshQG-40" value="" style="endArrow=none;html=1;entryX=1;entryY=-0.033;entryDx=0;entryDy=0;entryPerimeter=0;exitX=0;exitY=0.967;exitDx=0;exitDy=0;exitPerimeter=0;" edge="1" parent="hhulfD7d4bxJUT3jshQG-16" source="hhulfD7d4bxJUT3jshQG-23" target="hhulfD7d4bxJUT3jshQG-26">
          <mxGeometry width="50" height="50" relative="1" as="geometry">
            <mxPoint x="230" y="300" as="sourcePoint" />
            <mxPoint x="280" y="250" as="targetPoint" />
          </mxGeometry>
        </mxCell>
        <mxCell id="hhulfD7d4bxJUT3jshQG-31" value="" style="shape=partialRectangle;collapsible=0;dropTarget=0;pointerEvents=0;fillColor=none;top=0;left=0;bottom=0;right=0;points=[[0,0.5],[1,0.5]];portConstraint=eastwest;" vertex="1" parent="1">
          <mxGeometry x="90" y="410" width="390" height="30" as="geometry" />
        </mxCell>
        <mxCell id="hhulfD7d4bxJUT3jshQG-32" value="" style="shape=partialRectangle;connectable=0;fillColor=none;top=0;left=0;bottom=0;right=0;editable=1;overflow=hidden;" vertex="1" parent="hhulfD7d4bxJUT3jshQG-31">
          <mxGeometry width="60" height="30" as="geometry" />
        </mxCell>
        <mxCell id="hhulfD7d4bxJUT3jshQG-33" value="Row 4" style="shape=partialRectangle;connectable=0;fillColor=none;top=0;left=0;bottom=0;right=0;align=left;spacingLeft=6;overflow=hidden;" vertex="1" parent="hhulfD7d4bxJUT3jshQG-31">
          <mxGeometry x="60" width="330" height="30" as="geometry" />
        </mxCell>
        <mxCell id="hhulfD7d4bxJUT3jshQG-34" value="" style="endArrow=none;html=1;rounded=0;" edge="1" parent="1">
          <mxGeometry relative="1" as="geometry">
            <mxPoint x="476" y="160" as="sourcePoint" />
            <mxPoint x="476" y="60" as="targetPoint" />
            <Array as="points">
              <mxPoint x="476" y="50" />
            </Array>
          </mxGeometry>
        </mxCell>
        <mxCell id="hhulfD7d4bxJUT3jshQG-38" value="&lt;div class=&quot;mxCellEditor mxPlainTextEditor&quot; contenteditable=&quot;true&quot; style=&quot;background: url(&amp;quot;data:image/gif;base64,R0lGODlhMAAwAIAAAP///wAAACH5BAEAAAAALAAAAAAwADAAAAIxhI+py+0Po5y02ouz3rz7D4biSJbmiabqyrbuC8fyTNf2jef6zvf+DwwKh8Si8egpAAA7&amp;quot;); border-color: transparent; border-style: solid; display: inline-block; position: relative; overflow: visible; overflow-wrap: normal; border-width: 0px; min-width: 1px; resize: none; padding: 0px; margin: 0px; color: rgb(0, 0, 0); font-style: normal; font-variant-ligatures: normal; font-variant-caps: normal; letter-spacing: normal; orphans: 2; text-indent: 0px; text-transform: none; widows: 2; word-spacing: 0px; -webkit-text-stroke-width: 0px; text-decoration-thickness: initial; text-decoration-style: initial; text-decoration-color: initial; min-height: 1em; line-height: 1.2; font-weight: bold; font-size: 12px; z-index: 5; font-family: Helvetica; text-align: left; outline: none; white-space: nowrap; left: 1107px; top: 548px; transform-origin: 0px 0px; transform: scale(1, 1) translate(0%, -50%);&quot;&gt;&lt;br class=&quot;Apple-interchange-newline&quot;&gt;* LOCATION_ID                                              NUMBER (4)&lt;br style=&quot;padding: 0px; margin: 0px;&quot;&gt;&lt;br style=&quot;padding: 0px; margin: 0px;&quot;&gt;&lt;/div&gt;&lt;img src=&quot;data:image/png;base64,iVBORw0KGgoAAAANSUhEUgAAAAcAAAAEBAMAAACw6DhOAAAAGFBMVEUzMzP///9tbW1QUFCKiopBQUF8fHxfX1/IXlmXAAAAFElEQVQImWNgNVdzYBAUFBRggLMAEzYBy29kEPgAAAAASUVORK5CYII=&quot; border=&quot;0&quot; style=&quot;color: rgb(0, 0, 0); font-family: Helvetica, Arial, sans-serif; font-size: 0px; font-style: normal; font-variant-ligatures: normal; font-variant-caps: normal; font-weight: 400; letter-spacing: normal; orphans: 2; text-align: start; text-indent: 0px; text-transform: none; white-space: normal; widows: 2; word-spacing: 0px; -webkit-text-stroke-width: 0px; text-decoration-thickness: initial; text-decoration-style: initial; text-decoration-color: initial; position: absolute; cursor: pointer; width: 7px; height: 4px; padding: 4px 2px; left: 1573px; top: 541px;&quot;&gt;&lt;img src=&quot;data:image/png;base64,iVBORw0KGgoAAAANSUhEUgAAAAcAAAAEBAMAAACw6DhOAAAAGFBMVEUzMzP///9tbW1QUFCKiopBQUF8fHxfX1/IXlmXAAAAFElEQVQImWNgNVdzYBAUFBRggLMAEzYBy29kEPgAAAAASUVORK5CYII=&quot; border=&quot;0&quot; style=&quot;color: rgb(0, 0, 0); font-family: Helvetica, Arial, sans-serif; font-size: 0px; font-style: normal; font-variant-ligatures: normal; font-variant-caps: normal; font-weight: 400; letter-spacing: normal; orphans: 2; text-align: start; text-indent: 0px; text-transform: none; white-space: normal; widows: 2; word-spacing: 0px; -webkit-text-stroke-width: 0px; text-decoration-thickness: initial; text-decoration-style: initial; text-decoration-color: initial; position: absolute; cursor: pointer; width: 7px; height: 4px; padding: 4px 2px; left: 1573px; top: 571px;&quot;&gt;&lt;br class=&quot;Apple-interchange-newline&quot;&gt;" style="text;whiteSpace=wrap;html=1;" vertex="1" parent="1">
          <mxGeometry x="700" y="120" width="340" height="60" as="geometry" />
        </mxCell>
        <mxCell id="hhulfD7d4bxJUT3jshQG-39" value="LOCATION_PK (LOCATION_ID)" style="shape=partialRectangle;connectable=0;fillColor=none;top=0;left=0;bottom=0;right=0;align=left;spacingLeft=6;overflow=hidden;" vertex="1" parent="1">
          <mxGeometry x="230" y="220" width="480" height="30" as="geometry" />
        </mxCell>
        <mxCell id="hhulfD7d4bxJUT3jshQG-41" value="" style="endArrow=none;html=1;" edge="1" parent="1" source="hhulfD7d4bxJUT3jshQG-26">
          <mxGeometry width="50" height="50" relative="1" as="geometry">
            <mxPoint x="380" y="300" as="sourcePoint" />
            <mxPoint x="710" y="210" as="targetPoint" />
          </mxGeometry>
        </mxCell>
        <mxCell id="hhulfD7d4bxJUT3jshQG-42" value="" style="endArrow=none;html=1;exitX=-0.006;exitY=1.1;exitDx=0;exitDy=0;exitPerimeter=0;" edge="1" parent="1" source="hhulfD7d4bxJUT3jshQG-26">
          <mxGeometry width="50" height="50" relative="1" as="geometry">
            <mxPoint x="380" y="300" as="sourcePoint" />
            <mxPoint x="710" y="220" as="targetPoint" />
          </mxGeometry>
        </mxCell>
      </root>
    </mxGraphModel>
  </diagram>
</mxfile>
